<?xml version="1.0" encoding="utf-8"?>
<!-- Generator: Adobe Illustrator 27.0.0, SVG Export Plug-In . SVG Version: 6.00 Build 0)  -->
<!DOCTYPE svg PUBLIC "-//W3C//DTD SVG 1.1//EN" "http://www.w3.org/Graphics/SVG/1.1/DTD/svg11.dtd" [
	<!ENTITY ns_extend "http://ns.adobe.com/Extensibility/1.0/">
	<!ENTITY ns_ai "http://ns.adobe.com/AdobeIllustrator/10.0/">
	<!ENTITY ns_graphs "http://ns.adobe.com/Graphs/1.0/">
	<!ENTITY ns_vars "http://ns.adobe.com/Variables/1.0/">
	<!ENTITY ns_imrep "http://ns.adobe.com/ImageReplacement/1.0/">
	<!ENTITY ns_sfw "http://ns.adobe.com/SaveForWeb/1.0/">
	<!ENTITY ns_custom "http://ns.adobe.com/GenericCustomNamespace/1.0/">
	<!ENTITY ns_adobe_xpath "http://ns.adobe.com/XPath/1.0/">
]>
<svg version="1.1" id="Calque_1" xmlns:x="&ns_extend;" xmlns:i="&ns_ai;" xmlns:graph="&ns_graphs;"
	 xmlns="http://www.w3.org/2000/svg" xmlns:xlink="http://www.w3.org/1999/xlink" x="0px" y="0px" viewBox="0 0 452.7 395.5"
	 style="enable-background:new 0 0 452.7 395.5;" xml:space="preserve">
<metadata>
	<sfw  xmlns="&ns_sfw;">
		<slices></slices>
		<sliceSourceBounds  bottomLeftOrigin="true" height="354.1" width="421.3" x="100.3" y="-589.7"></sliceSourceBounds>
	</sfw>
</metadata>
<g>
	<path d="M267.5,163.8c-1,0.5-1.6,0.8-2.1,1.2c-7.8,6-15.6,12.1-23.5,18.1c-9.7,7.5-19.4,14.9-29.1,22.4c-7.7,5.9-15.3,11.9-23,17.9
		c-8.2,6.3-16.5,12.6-24.7,18.9c-5.8,4.5-11.6,8.9-17.4,13.4c-4.8,3.7-9.6,7.3-15,10.1c-7.2,3.8-16.4,2-20.4-4.3
		c-1.2-1.9-2.1-4-2.1-6.4c0-0.5,0-1,0-1.4c0-72.5,0-145.1,0-217.6c0-6.5,4.4-11.6,10.7-13.5c3.7-1.1,7.1-0.9,10.7-0.2
		c0.4,0.1,0.8,0.2,1.1,0.2c5,0.5,10.1,0.8,15.1,1.5c3.4,0.4,6.7,1.2,10.1,1.9c2.7,0.5,5.4,1,8.1,1.7c3.2,0.7,6.4,1.6,9.7,2.4
		c1.9,0.5,3.9,0.9,5.8,1.4c2.4,0.6,4.7,1.3,7,2.1c2.9,0.9,5.8,1.8,8.6,2.8c3.7,1.3,7.5,2.5,11.1,4.1c6.5,3,12.9,6.2,19.2,9.4
		c3.1,1.6,6.1,3.3,9,5.4c5.4,3.9,11,7.6,16,12c8.1,7,15.3,14.7,21.6,23.5c5,7,9,14.6,13,22.4c0.8-0.3,1.7-0.5,2.3-0.9
		c6.7-4.9,13.3-9.8,20-14.7c7.4-5.5,14.8-11,22.2-16.5c5.9-4.4,11.8-8.8,17.7-13.2c13.5-10,26.9-19.9,40.4-29.9
		c8.6-6.4,17.3-12.8,25.9-19.2c2.4-1.8,5.2-3,8.1-3.1c5.5-0.1,9.8,2.4,12.6,7.2c1,1.7,1.7,3.6,1.6,5.7c-0.1,1,0,2.1,0,3.2
		c0,107.2,0,214.4,0,321.6c0,1-0.1,1.9,0,2.9c0.5,6-4.9,11.7-10.5,12.9c-7.5,1.7-14-2.7-16.4-8.9c-0.8-2-0.7-4.3-1-6.5
		c-0.1-1,0-2.1,0-3.2c0-95.3,0-190.7,0-286c0-1.8,0.5-3.8-0.7-5.8c-3.2,2.2-6.3,4.3-9.3,6.6c-5.7,4.2-11.2,8.6-16.9,12.8
		c-9.1,6.7-18.2,13.4-27.3,20.1c-7.7,5.7-15.5,11.5-23.2,17.2c-8.8,6.5-17.5,13-26.3,19.5c-2.8,2.1-5.6,4.2-8.4,6.3
		c-1.3,1-1.9,2.1-1,3.6c0.2,0.4,0.3,0.9,0.4,1.4c0.5,4.1,0.8,8.2,1.5,12.2c1.8,10.1,1,20.2,1.2,30.3c0.1,3.9,0.3,7.9-0.3,11.7
		c-0.8,5-0.4,10.1-2,15c-0.1,0.4-0.1,0.8-0.1,1.1c-0.3,4.2-1.2,8.2-2.2,12.3c-0.9,3.5-1.6,7.1-2.6,10.5c-1.1,3.7-2.6,7.3-3.6,11
		c-1.2,4.4-3.1,8.5-5,12.6c-5.1,10.9-11.2,21-18.7,30.5c-6.4,8.1-13.6,15.5-21.4,22.1c-9.6,8.2-20.2,15.2-31.4,21.1
		c-7.2,3.8-14.7,7.2-22.3,10.2c-6.8,2.8-13.8,5.2-20.8,7.3c-3.6,1.1-7.2,2.3-10.8,3.3c-2.4,0.7-4.8,1-7.2,1.5
		c-1.8,0.4-3.5,0.8-5.3,1.2c-5.4,1.2-10.8,2.4-16.2,3.4c-3.7,0.7-7.5,1.1-11.3,1.6c-4.8,0.7-9.6,1.3-14.4,2
		c-0.5,0.1-0.9,0.2-1.4,0.2c-9.5,0.4-19,1.7-28.6,1.6c-6,0-12,0.6-18,0.7c-4.7,0.1-9.4-0.1-14-0.1c-1.3,0-2.7,0-4-0.1
		c-3.6-0.2-7.3-0.4-10.8-0.9c-5.2-0.7-11.5-6.9-10.7-12.3c0.1-0.8,0-1.7,0-2.6c0-103.9,0-207.9,0-311.8c0-5.5,2.3-9.5,6.9-12.2
		c9.5-5.6,20.3,2.1,20.7,9.8c0.1,2.2,0.4,4.4,0.4,6.6c0,95,0,190.1,0,285.1c0,1.1,0,2.1,0,3.2c0.1,2,0.6,2.6,2.6,2.7
		c2.9,0.3,5.9,0.5,8.9,0.5c9.5,0.1,18.9,0.1,28.4,0c4.5-0.1,9-0.6,13.4-0.9c6.3-0.5,12.6-0.9,18.8-1.6c4-0.4,7.9-1.3,11.8-1.9
		c3.2-0.5,6.4-0.9,9.6-1.5c3-0.6,5.9-1.4,8.8-2.1c2-0.5,4.1-1,6.1-1.5c4.8-1.3,9.8-2.4,14.5-4c6-2.1,11.7-4.6,17.6-6.9
		c8.2-3.2,15.9-7.6,23.3-12.4c8.6-5.6,16.6-12,23.7-19.4c5.6-5.9,10.6-12.2,15-19.1c3.8-5.9,7.2-11.9,9.7-18.5
		c1.4-3.8,3.2-7.5,4.4-11.4c1.2-3.8,2-7.7,3-11.5c0.7-2.7,1.4-5.3,1.9-8c0.6-3.5,1.2-7,1.5-10.5c1-10,1.6-20,1.2-30.1
		C268.5,172.2,267.9,168.2,267.5,163.8z M138.8,223.5c1.5-1.1,2.5-1.8,3.5-2.5c6.2-4.6,12.4-9.2,18.6-13.8c6.7-4.9,13.3-9.8,20-14.7
		c8.8-6.6,17.7-13.2,26.5-19.8c7-5.2,14-10.5,21.1-15.7c6-4.4,12-8.8,18-13.2c4.2-3.1,8.3-6.2,12.5-9.2c1.1-0.8,1.5-1.7,0.8-3.2
		c-1.3-2.6-2.2-5.4-3.5-8c-3.2-6.3-6.9-12.3-11.2-18c-7.5-9.8-16.5-17.9-26.7-24.7c-6.8-4.5-13.9-8.4-21.4-11.6
		c-6.6-2.8-13.2-5.4-20.2-7.2c-4-1-7.8-2.5-11.8-3.4c-5.2-1.1-10.5-1.9-15.7-2.8c-0.4-0.1-0.8-0.1-1.1-0.2c-3-1.3-6.1-0.6-9.3-1
		C138.8,110.9,138.8,166.9,138.8,223.5z"/>
</g>
</svg>
